{"title":"Wreck-It.Ralph.2012 WEBRip XViD-juggs","uid":8134909,"size":740056191,"categoryP":"video","categoryS":"movies","magnet":"?xt=urn:btih:fbd2845f635a11740f305775bd8671e47ff63189&amp;dn=Wreck-It.Ralph.2012+WEBRip+XViD-juggs&amp;tr=udp%3A%2F%2Ftracker.openbittorrent.com%3A80&amp;tr=udp%3A%2F%2Fopen.demonii.com%3A1337&amp;tr=udp%3A%2F%2Ftracker.coppersurfer.tk%3A6969&amp;tr=udp%3A%2F%2Fexodus.desync.com%3A6969","seeders":2,"leechers":0,"uploader":"juggs99","files":3,"time":1360693417,"description":"Format : AVI\nFormat/Info : Audio Video Interleave\nFile size : 695 MiB\nDuration : 1h 41mn\nOverall bit rate : 960 Kbps\n\nVideo\nID : 0\nFormat : MPEG-4 Visual\nFormat profile : Advanced Simple@L5\nFormat settings, BVOP : 2\nFormat settings, QPel : No\nFormat settings, GMC : No warppoints\nFormat settings, Matrix : Default (H.263)\nCodec ID : XVID\nCodec ID/Hint : XviD\nDuration : 1h 41mn\nBit rate : 794 Kbps\nWidth : 640 pixels\nHeight : 272 pixels\nDisplay aspect ratio : 2.35:1\nFrame rate : 23.976 fps\nColor space : YUV\nChroma subsampling : 4:2:0\nBit depth : 8 bits\nScan type : Progressive\nCompression mode : Lossy\nBits/(Pixel*Frame) : 0.190\nStream size : 575 MiB (83%)\nWriting library : XviD 1.2.1 (UTC 2008-12-04)\n\nAudio\nID : 1\nFormat : MPEG Audio\nFormat version : Version 1\nFormat profile : Layer 3\nMode : Joint stereo\nMode extension : MS Stereo\nCodec ID : 55\nCodec ID/Hint : MP3\nDuration : 1h 41mn\nBit rate mode : Constant\nBit rate : 160 Kbps\nChannel(s) : 2 channels\nSampling rate : 48.0 KHz\nCompression mode : Lossy\nStream size : 116 MiB (17%)\nAlignment : Aligned on interleaves\nInterleave, duration : 167 ms (4.00 video frames)\nInterleave, preload duration : 216 ms\n\n\nPlot\n\nA video game villain wants to be a hero and sets out to fulfill his dream, but his quest brings havoc to the whole arcade where he lives.\n\n\n &lt;a href=&quot;\nhttp://www.shotpix.com/images/67842011750035803595.png&quot; rel=&quot;nofollow&quot; target=&quot;_NEW&quot;&gt;\nhttp://www.shotpix.com/images/67842011750035803595.png&lt;/a&gt; &lt;a href=&quot;\nhttp://www.shotpix.com/images/33290624169939305082.png&quot; rel=&quot;nofollow&quot; target=&quot;_NEW&quot;&gt;\nhttp://www.shotpix.com/images/33290624169939305082.png&lt;/a&gt; &lt;a href=&quot;\nhttp://www.shotpix.com/images/27426731303353113939.png&quot; rel=&quot;nofollow&quot; target=&quot;_NEW&quot;&gt;\nhttp://www.shotpix.com/images/27426731303353113939.png&lt;/a&gt; &lt;a href=&quot;\nhttp://www.shotpix.com/images/48041796208968821853.png&quot; rel=&quot;nofollow&quot; target=&quot;_NEW&quot;&gt;\nhttp://www.shotpix.com/images/48041796208968821853.png&lt;/a&gt;","torrent":{"xt":"urn:btih:fbd2845f635a11740f305775bd8671e47ff63189","amp;dn":"Wreck-It.Ralph.2012+WEBRip+XViD-juggs","amp;tr":["udp%3A%2F%2Ftracker.openbittorrent.com%3A80","udp%3A%2F%2Fopen.demonii.com%3A1337","udp%3A%2F%2Ftracker.coppersurfer.tk%3A6969","udp%3A%2F%2Fexodus.desync.com%3A6969"],"infoHash":"fbd2845f635a11740f305775bd8671e47ff63189","infoHashBuffer":{"type":"Buffer","data":[251,210,132,95,99,90,17,116,15,48,87,117,189,134,113,228,127,246,49,137]},"announce":[],"urlList":[]}}